<svg width="233" height="158" viewBox="0 0 233 158" fill="none" xmlns="http://www.w3.org/2000/svg">
<g clip-path="url(#clip0_910_2)">
<path d="M95 27H96L97 22L122 23V54H123L123.789 31L139 0L106 1.1343L94.313 6.2245L95 27ZM139 45H140L142 39C152.751 41.3474 165.323 39.6198 176.333 39.6674C180.013 39.6834 186.594 38.2946 189.168 41.5177C193.528 46.9765 189.004 63.2881 189 70H196V69H193C190.925 57.8238 192.163 46.6061 196.268 36C197.775 32.1049 203.934 23.4772 201.264 19.3935C198.237 14.7649 187.976 12.6598 183 11C176.346 8.7803 167.151 4.4277 160 5.9884C143.99 9.4824 139.646 31.566 139 45Z" fill="#DFB40A"/>
<path d="M43 70L61 66H62C64.4169 69.0732 79.27 69.6717 80 66H81L83 75H84C81.048 53.0929 75.658 34.3883 80 12C60.8714 19.2525 38.8052 48.431 43 70ZM97 22C94.557 35.3581 101.992 50.8369 107.011 63C108.978 67.7673 110.559 74.0891 115 77L116 84L118 83L117 87H118C118.653 85.04 119 84.446 119 87H120V84H121V89H122L124 85L123 88H124L125 85L135 87H136L137 85L140 88L139 84L143 88L135 81V80L137 79C122.63 60.3054 120.2 45.5867 122 23L97 22Z" fill="white"/>
<path d="M118 24L119 25L118 24Z" fill="#DFB40A"/>
<path d="M122 24L123 25L122 24Z" fill="white"/>
<path d="M79 29L78 36H79V29ZM96.333 30.6667L96.667 31.3333L96.333 30.6667Z" fill="#DFB40A"/>
<path d="M18 46.9998V45.9998L17 43.9998C4.90729 37.8861 23.8312 35.0824 18 43.9998V44.9998L19 46.9998L23 44.9998L24 48.9998C28.7518 37.5647 13.2009 28.4791 4.21369 35.8038C0.462386 38.8613 -2.10171 46.497 5.01539 46.4558C9.58989 46.4294 13.4169 46.3902 18 46.9998Z" fill="white"/>
<path d="M97.333 34.6665L97.667 35.3331L97.333 34.6665Z" fill="#DFB40A"/>
<path d="M14.314 37.0862C9.8688 38.1701 14.0101 45.034 17.8519 43.8725C22.0965 42.5892 17.9541 36.1987 14.314 37.0862Z" fill="#F6F7F7"/>
<path d="M98.333 38.6665L98.667 39.3331L98.333 38.6665Z" fill="#DFB40A"/>
<path d="M142 39C133.559 59.0366 158.298 79.0764 172 89.373C176.992 93.125 182.522 98.862 189 99L188 101H189L190 92C205.619 92.845 214.176 112.784 230 116L228 113V112C232.984 107.711 230.155 98.72 230.015 93C229.61 76.4878 230.706 60.4019 232 44C213.458 45.757 207.225 69.5615 189 70L189.782 41.5139L177.76 39.3549L142 39Z" fill="#CF4B05"/>
<path d="M99 42L100 43L99 42ZM15 43L16 44L15 43ZM229 45L232 44L229 45ZM225.667 44.3333L226.333 44.6667L225.667 44.3333ZM232 44V48H233L232 44Z" fill="#DFB40A"/>
<path d="M0 46C3.512 60.6075 26.6992 60.3595 23 45L19 47L16 45V46H18H0ZM20 45L21 46L20 45Z" fill="#00395A"/>
<path d="M100 45L101 46L100 45ZM221 46V47L225 46H221ZM220 47L221 48L220 47Z" fill="#DFB40A"/>
<path d="M0.333313 48.6665L0.666714 49.3331L0.333313 48.6665Z" fill="white"/>
<path d="M101 48L102 49L101 48ZM140 48V52H141L140 48ZM218 48L219 49L218 48ZM231 48L232 116H233L232.015 70L231 48ZM217 49L218 50L217 49Z" fill="#DFB40A"/>
<path d="M23.3333 50.6665L23.6667 51.3331L23.3333 50.6665Z" fill="white"/>
<path d="M216 50L217 51L216 50Z" fill="#DFB40A"/>
<path d="M1 51L2 52L1 51Z" fill="white"/>
<path d="M80 51L81 52L80 51ZM102 51L103 52L102 51ZM215 51L216 52L215 51Z" fill="#DFB40A"/>
<path d="M22 52L20 55L22 52Z" fill="white"/>
<path d="M214 52L215 53L214 52ZM22 53L23 54L22 53ZM141.333 53.6667L141.667 54.3333L141.333 53.6667ZM213 53L214 54L213 53ZM21 54L22 55L21 54ZM103 54L104 55L103 54Z" fill="#DFB40A"/>
<path d="M19 55L20 56L19 55Z" fill="white"/>
<path d="M211 55L212 56L211 55Z" fill="#DFB40A"/>
<path d="M6 56L7 57L6 56ZM17.6667 56.3333L18.3333 56.6667L17.6667 56.3333Z" fill="white"/>
<path d="M104 56L105 57L104 56ZM123 56L124 57L123 56ZM142.333 56.6667L142.667 57.3333L142.333 56.6667ZM8 57L9 58L8 57Z" fill="#DFB40A"/>
<path d="M9.66669 57.3335L10.3333 57.6669L9.66669 57.3335ZM14.6667 57.3335L15.3333 57.6669L14.6667 57.3335Z" fill="white"/>
<path d="M16 57L17 58L16 57ZM210 57L211 58L210 57ZM124 58L125 59L124 58ZM143.333 58.6667L143.667 59.3333L143.333 58.6667ZM105 59L106 60L105 59ZM125 60L126 61L125 60ZM144.333 60.6667L144.667 61.3333L144.333 60.6667ZM106 61L107 62L106 61ZM126.333 61.6667L126.667 62.3333L126.333 61.6667ZM145 62L146 63L145 62ZM127.333 63.6667L127.667 64.3333L127.333 63.6667ZM203 63L204 64L203 63Z" fill="#DFB40A"/>
<path d="M12 74H13C16.4937 71.4451 22.2417 72.0095 26 74C29.9131 63.8537 12.7228 60.8073 12 74Z" fill="white"/>
<path d="M81 64L82 65L81 64ZM146 64L147 65L146 64ZM202 64L203 65L202 64ZM147.333 65.6667L147.667 66.3333L147.333 65.6667ZM201 65L202 66L201 65Z" fill="#DFB40A"/>
<path d="M43.3333 66.6667L43.6667 67.3333L43.3333 66.6667ZM61 66L43 68H42C39.4881 78.8526 34.5357 90.574 23 94L25 105C36.5071 109.021 42.2629 120.964 51 128.829C62.4024 139.095 75.562 145.302 90 150C95.6 132.783 93.386 119.536 92 102L118 108C117.828 87.28 104.126 85.295 88 92L81 66H80V69L61 66Z" fill="#00395A"/>
<path d="M108 66L109 67L108 66ZM128 66L129 67L128 66ZM200 66L201 67L200 66Z" fill="#DFB40A"/>
<path d="M20 67L24 70L23 67H20Z" fill="#F6F7F7"/>
<path d="M64.6667 67.3335L65.3333 67.6669L64.6667 67.3335Z" fill="#00395A"/>
<path d="M148 67L149 68L148 67ZM198 67L199 68L198 67Z" fill="#DFB40A"/>
<path d="M61 68L62 69L61 68Z" fill="white"/>
<path d="M109 68L110 69L109 68ZM129 68L130 69L129 68ZM149 68L150 69L149 68ZM197 68L198 69L197 68Z" fill="#DFB40A"/>
<path d="M41.3333 69.6665L41.6667 70.3331L41.3333 69.6665Z" fill="white"/>
<path d="M130 69L131 70L130 69ZM150 69L151 70L150 69Z" fill="#DFB40A"/>
<path d="M62 70C57.3834 74.5315 53.9784 77.0781 56 84H57C55.7212 76.0809 60.4919 75.6634 64 70H62Z" fill="white"/>
<path d="M22 71L23 72L22 71Z" fill="#00395A"/>
<path d="M131 71L132 72L131 71ZM151 71L152 72L151 71Z" fill="#DFB40A"/>
<path d="M13 72C14.7556 80.2489 24.2766 80.2881 26 72H13Z" fill="#00395A"/>
<path d="M40.3333 72.6665L40.6667 73.3331L40.3333 72.6665Z" fill="white"/>
<path d="M65 72V73L70 79H71C70.1879 75.0682 68.7858 73.3607 65 72Z" fill="white"/>
<path d="M152 72L153 73L152 72Z" fill="#DFB40A"/>
<path d="M66 73L67 74L66 73Z" fill="#F6F7F7"/>
<path d="M54 74L55 75L54 74Z" fill="white"/>
<path d="M133 74L134 75L133 74ZM154 74L155 75L154 74Z" fill="#DFB40A"/>
<path d="M13 75L14 76L13 75ZM25 75L26 76L25 75ZM39.3333 75.6667L39.6667 76.3333L39.3333 75.6667Z" fill="white"/>
<path d="M60 74.9999C57.9082 76.577 56.9803 78.3802 57 80.9999C57.0158 83.1028 57.5667 84.4609 59 85.9999C62.9566 90.2484 72.1013 82.7833 69 74.9999C69 74.9999 66.034 73.3627 64 73.4999C62.3355 73.6121 61.3321 73.9955 60 74.9999Z" fill="#F6F7F7"/>
<path d="M155 75L156 76L155 75Z" fill="#DFB40A"/>
<path d="M84 76V79H85L84 76Z" fill="white"/>
<path d="M156 76L157 77L156 76Z" fill="#DFB40A"/>
<path d="M15 77L16 78L15 77Z" fill="white"/>
<path d="M113 77L114 78L113 77Z" fill="#DFB40A"/>
<path d="M114 77L115 78L114 77Z" fill="#00395A"/>
<path d="M135 77L136 78L135 77ZM157 77L158 78L157 77ZM16 78L17 79L16 78Z" fill="#DFB40A"/>
<path d="M17 78L18 79L17 78ZM21 78L22 79L21 78Z" fill="white"/>
<path d="M22 78L23 79L22 78Z" fill="#DFB40A"/>
<path d="M38 78L39 79L38 78Z" fill="white"/>
<path d="M158 78L159 79L158 78ZM85 79L86 80L85 79ZM114 79L115 80L114 79ZM159 79L160 80L159 79Z" fill="#DFB40A"/>
<path d="M37.3333 80.6665L37.6667 81.3331L37.3333 80.6665ZM85.333 80.6665L85.667 81.3331L85.333 80.6665Z" fill="white"/>
<path d="M135.667 80.3335L136.333 80.6669L135.667 80.3335Z" fill="#00395A"/>
<path d="M137 80L138 81L137 80ZM160 80L161 81L160 80Z" fill="#DFB40A"/>
<path d="M70.3333 81.6665L70.6667 82.3331L70.3333 81.6665Z" fill="white"/>
<path d="M138 81L139 82L138 81ZM162 81L163 82L162 81Z" fill="#DFB40A"/>
<path d="M116 82L117 83L116 82ZM136 82L138 85L136 82Z" fill="#00395A"/>
<path d="M163 82L164 83L163 82Z" fill="#DFB40A"/>
<path d="M36 83L37 84L36 83ZM69.3333 83.6667L69.6667 84.333L69.3333 83.6667ZM86.333 83.6667L86.667 84.333L86.333 83.6667Z" fill="white"/>
<path d="M117.333 83.6667L117.667 84.333L117.333 83.6667ZM119 83L120 84L119 83ZM124.333 83.6667L124.667 84.333L124.333 83.6667Z" fill="#00395A"/>
<path d="M164 83L165 84L164 83Z" fill="#DFB40A"/>
<path d="M35 84L36 85L35 84Z" fill="white"/>
<path d="M116 84L117 85L116 84Z" fill="#DFB40A"/>
<path d="M120 84V87H119V85H118C121.501 108.705 132.886 131.276 127 156C144.981 161.315 165.305 146.385 183 144C176.595 123.768 154.209 98.453 139 84L140 88L136 87H135L134 84L125 85L124 88H123L124 85L122 89H121L120 84Z" fill="#00395A"/>
<path d="M165 84L166 85L165 84Z" fill="#DFB40A"/>
<path d="M58 85L59 86L58 85ZM68 85L69 86L68 85Z" fill="white"/>
<path d="M141 85L142 86L141 85Z" fill="#DFB40A"/>
<path d="M34 86L35 87L34 86ZM59 86L60 87L59 86ZM66 86L67 87L66 86ZM87.333 86.667L87.667 87.333L87.333 86.667ZM133 86L134 87L133 86Z" fill="white"/>
<path d="M142 86L143 87L142 86ZM168 86L169 87L168 86Z" fill="#DFB40A"/>
<path d="M33 87L34 88L33 87ZM61 87V88H65L61 87ZM97.667 87.333L98.333 87.667L97.667 87.333ZM106.667 87.333L107.333 87.667L106.667 87.333Z" fill="white"/>
<path d="M117 87L118 88L117 87ZM169 87L170 88L169 87Z" fill="#DFB40A"/>
<path d="M94.667 88.333L95.333 88.667L94.667 88.333ZM109 88L110 89L109 88ZM118.333 88.667L118.667 89.333L118.333 88.667Z" fill="white"/>
<path d="M143 88L144 89L143 88ZM170 88L171 89L170 88Z" fill="#DFB40A"/>
<path d="M88 89C88.605 91.767 89.289 91.577 92 91V90L88 89Z" fill="white"/>
<path d="M89 89L90 90L89 89ZM92 89L93 90L92 89Z" fill="#DFB40A"/>
<path d="M93 89L94 90L93 89ZM141 89L142 90L141 89Z" fill="white"/>
<path d="M144 89L145 90L144 89ZM171.667 89.333L172.333 89.667L171.667 89.333Z" fill="#DFB40A"/>
<path d="M30 90L31 91L30 90Z" fill="white"/>
<path d="M89 90L90 91L89 90Z" fill="#F6F7F7"/>
<path d="M112 90L113 91L112 90Z" fill="white"/>
<path d="M118 90L119 91L118 90Z" fill="#DFB40A"/>
<path d="M144 90L145 91L144 90Z" fill="white"/>
<path d="M173 90L174 91L173 90Z" fill="#DFB40A"/>
<path d="M29 91L30 92L29 91ZM113 91L114 92L113 91ZM119.333 91.667L119.667 92.333L119.333 91.667ZM145 91L146 92L145 91Z" fill="white"/>
<path d="M174 91L175 92L174 91Z" fill="#DFB40A"/>
<path d="M27 92L28 93L27 92ZM114 92L115 93L114 92ZM146 92L147 93L146 92Z" fill="white"/>
<path d="M176 92L177 93L176 92ZM190 92V98H201L202 97C198.532 93.261 195.028 92.121 190 92Z" fill="#DFB40A"/>
<path d="M24.6667 93.333L25.3333 93.667L24.6667 93.333Z" fill="white"/>
<path d="M119 93L120 94L119 93ZM147 93L148 94L147 93ZM177 93L178 94L177 93Z" fill="#DFB40A"/>
<path d="M22 94L23 95L22 94ZM115 94L116 95L115 94ZM120.333 94.667L120.667 95.333L120.333 94.667ZM23 95L24 96L23 95ZM148 95L149 96L148 95Z" fill="white"/>
<path d="M180 95L181 96L180 95Z" fill="#DFB40A"/>
<path d="M24 96L25 97L24 96ZM116 96L117 97L116 96Z" fill="white"/>
<path d="M118 96L120 105H121L120 100L121 96H118Z" fill="#DFB40A"/>
<path d="M149 96L150 97L149 96Z" fill="white"/>
<path d="M181 96L182 97L181 96Z" fill="#DFB40A"/>
<path d="M121.333 97.667L121.667 98.333L121.333 97.667ZM150 97L151 98L150 97Z" fill="white"/>
<path d="M183 97L184 98L183 97ZM202 97V99H204L202 97Z" fill="#DFB40A"/>
<path d="M25 98L26 99L25 98Z" fill="white"/>
<path d="M118 98L119 99L118 98ZM120.333 98.667L120.667 99.333L120.333 98.667Z" fill="#F6F7F7"/>
<path d="M151 98L152 99L151 98ZM184 98L185 99L184 98Z" fill="#DFB40A"/>
<path d="M117.333 99.667L117.667 100.333L117.333 99.667Z" fill="white"/>
<path d="M152 99L153 100L152 99Z" fill="#DFB40A"/>
<path d="M187.667 99.333L188.333 99.667L187.667 99.333Z" fill="#00395A"/>
<path d="M204 99L205 100L204 99Z" fill="#DFB40A"/>
<path d="M152 100L153 101L152 100Z" fill="white"/>
<path d="M187 100L188 101L187 100ZM189.333 100.667L189.667 101.333L189.333 100.667ZM205 100L206 101L205 100Z" fill="#DFB40A"/>
<path d="M122.333 101.667L122.667 102.333L122.333 101.667ZM153 101L154 102L153 101ZM25 102L26 103L25 102ZM92 102V107H93L96 103L92 102ZM154 102L155 103L154 102Z" fill="white"/>
<path d="M94 112H95L103 106C97.684 99.0169 92.43 105.311 94 112Z" fill="#DFB40A"/>
<path d="M100 103V104H103L100 103Z" fill="white"/>
<path d="M122 103L123 104L122 103ZM155 103L156 104L155 103Z" fill="#DFB40A"/>
<path d="M210 103L211 104L210 103Z" fill="#00395A"/>
<path d="M104 104L105 105L104 104Z" fill="#DFB40A"/>
<path d="M105.667 104.333L106.333 104.667L105.667 104.333ZM26 105L27 106L26 105Z" fill="white"/>
<path d="M108 105L109 106L108 105Z" fill="#DFB40A"/>
<path d="M109 105L110 106L109 105Z" fill="white"/>
<path d="M121 105L122 106L121 105Z" fill="#DFB40A"/>
<path d="M123 105L124 106L123 105ZM156 105L157 106L156 105Z" fill="white"/>
<path d="M210 105L211 106L210 105Z" fill="#DFB40A"/>
<path d="M29 106L30 107L29 106Z" fill="white"/>
<path d="M111 106L112 107L111 106Z" fill="#DFB40A"/>
<path d="M112 106L113 107L112 106Z" fill="white"/>
<path d="M123.333 106.667L123.667 107.333L123.333 106.667Z" fill="#DFB40A"/>
<path d="M157 106L158 107L157 106Z" fill="white"/>
<path d="M211 106L212 107L211 106Z" fill="#DFB40A"/>
<path d="M213 106L214 107L213 106ZM230 106L228 112V113L230 116L214 107C217.361 114.146 224.327 117.649 232 118L230 106Z" fill="#00395A"/>
<path d="M30 107L31 108L30 107Z" fill="#DFB40A"/>
<path d="M31 107L32 108L31 107ZM114.667 107.333L115.333 107.667L114.667 107.333ZM158 107L159 108L158 107Z" fill="white"/>
<path d="M212 107L213 108L212 107Z" fill="#DFB40A"/>
<path d="M32 108L33 109L32 108Z" fill="white"/>
<path d="M116 108L117 109L116 108Z" fill="#DFB40A"/>
<path d="M117 108L118 109L117 108ZM124 108V111H125L124 108Z" fill="white"/>
<path d="M159 108L160 109L159 108ZM213 108L214 109L213 108Z" fill="#DFB40A"/>
<path d="M33 109L34 110L33 109Z" fill="white"/>
<path d="M214 109L215 110L214 109Z" fill="#DFB40A"/>
<path d="M231 109V113H232L231 109Z" fill="#CF4B05"/>
<path d="M34 110L35 111L34 110Z" fill="#DFB40A"/>
<path d="M93 110V113H94L93 110ZM160 110L161 111L160 110Z" fill="white"/>
<path d="M215 110L216 111L215 110ZM35 111L36 112L35 111ZM96 111L97 112L96 111ZM124 111L125 112L124 111Z" fill="#DFB40A"/>
<path d="M161 111L162 112L161 111Z" fill="white"/>
<path d="M216 111L217 112L216 111Z" fill="#DFB40A"/>
<path d="M36 112L37 113L36 112ZM162 112L163 113L162 112Z" fill="white"/>
<path d="M217 112L218 113L217 112Z" fill="#DFB40A"/>
<path d="M37 113L38 114L37 113ZM125.333 113.667L125.667 114.333L125.333 113.667Z" fill="white"/>
<path d="M163 113L164 114L163 113ZM218 113L219 114L218 113ZM164 114L165 115L164 114Z" fill="#DFB40A"/>
<path d="M220 114L221 115L220 114Z" fill="#CF4B05"/>
<path d="M94 115L95 118H96L94 115ZM125 115L126 116L125 115Z" fill="#DFB40A"/>
<path d="M164 115L165 116L164 115Z" fill="white"/>
<path d="M221 115L222 116L221 115Z" fill="#CF4B05"/>
<path d="M94 116V122H95L94 116ZM165 116L166 117L165 116Z" fill="white"/>
<path d="M222 116L223 117L222 116Z" fill="#DFB40A"/>
<path d="M223 116L224 117L223 116ZM232.333 116.667L232.667 117.333L232.333 116.667Z" fill="#CF4B05"/>
<path d="M40 117L41 118L40 117ZM166 117L167 118L166 117ZM224.667 117.333L225.333 117.667L224.667 117.333Z" fill="#DFB40A"/>
<path d="M226 117L227 118L226 117Z" fill="#CF4B05"/>
<path d="M41 118L42 119L41 118Z" fill="white"/>
<path d="M228 118V119H233L228 118Z" fill="#DFB40A"/>
<path d="M126.333 119.667L126.667 120.333L126.333 119.667ZM167 119L168 120L167 119Z" fill="white"/>
<path d="M95 120L96 121L95 120Z" fill="#DFB40A"/>
<path d="M168 120L169 121L168 120Z" fill="white"/>
<path d="M126 121L127 122L126 121ZM169 121L170 122L169 121ZM95 122V128H96L95 122ZM170 122L171 123L170 122Z" fill="#DFB40A"/>
<path d="M170 123L171 124L170 123ZM171 124L172 125L171 124Z" fill="white"/>
<path d="M172 125L173 126L172 125Z" fill="#DFB40A"/>
<path d="M127 126V130H128L127 126ZM173 127L174 128L173 127ZM94 128L95 129L94 128Z" fill="white"/>
<path d="M174 128L175 129L174 128ZM95 129L91 147H92C95.052 141.631 97.529 135.027 95 129Z" fill="#DFB40A"/>
<path d="M94 130V133H95L94 130Z" fill="white"/>
<path d="M127.333 130.667L127.667 131.333L127.333 130.667Z" fill="#DFB40A"/>
<path d="M175 130L176 131L175 130ZM54 131L55 132L54 131ZM176 131L177 132L176 131ZM55 132L56 133L55 132Z" fill="white"/>
<path d="M177 132L178 133L177 132ZM56 133L57 134L56 133Z" fill="#DFB40A"/>
<path d="M177 133L178 134L177 133Z" fill="white"/>
<path d="M178 134L179 135L178 134Z" fill="#DFB40A"/>
<path d="M59 135L60 136L59 135Z" fill="white"/>
<path d="M94 135L95 136L94 135Z" fill="#F6F7F7"/>
<path d="M60 136L61 137L60 136Z" fill="#DFB40A"/>
<path d="M179 136L180 137L179 136ZM62 137L63 138L62 137Z" fill="white"/>
<path d="M180 137L181 138L180 137ZM63 138L64 139L63 138Z" fill="#DFB40A"/>
<path d="M93 138L94 139L93 138ZM180 138L181 139L180 138ZM65 139L66 140L65 139ZM181 139L182 140L181 139Z" fill="white"/>
<path d="M66 140L67 141L66 140Z" fill="#DFB40A"/>
<path d="M67 140L68 141L67 140Z" fill="white"/>
<path d="M68 141L69 142L68 141Z" fill="#DFB40A"/>
<path d="M182 141L183 142L182 141Z" fill="white"/>
<path d="M70 142L71 143L70 142Z" fill="#DFB40A"/>
<path d="M92 142L93 143L92 142Z" fill="white"/>
<path d="M72 143L73 144L72 143ZM183 143L184 144L183 143ZM74 144L75 145L74 144Z" fill="#DFB40A"/>
<path d="M179.667 144.333L180.333 144.667L179.667 144.333Z" fill="white"/>
<path d="M76 145L77 146L76 145Z" fill="#DFB40A"/>
<path d="M77 145L78 146L77 145ZM91 145L92 146L91 145ZM175.667 145.333L176.333 145.667L175.667 145.333Z" fill="white"/>
<path d="M177 145L178 146L177 145Z" fill="#DFB40A"/>
<path d="M79 146L80 147L79 146ZM172 146L173 147L172 146Z" fill="white"/>
<path d="M141 158C146.026 157.517 152.772 157.298 156 153L177 147C169.773 144.436 157.131 151.766 150 153.975C146.715 154.992 143.205 155.271 141 158ZM81 147L82 148L81 147Z" fill="#DFB40A"/>
<path d="M82 147L83 148L82 147ZM168.667 147.333L169.333 147.667L168.667 147.333Z" fill="white"/>
<path d="M83.667 148.333L84.333 148.667L83.667 148.333Z" fill="#DFB40A"/>
<path d="M85 148L86 149L85 148Z" fill="white"/>
<path d="M90 148L91 149L90 148Z" fill="#DFB40A"/>
<path d="M165.667 148.333L166.333 148.667L165.667 148.333Z" fill="white"/>
<path d="M87 149L88 150L87 149Z" fill="#DFB40A"/>
<path d="M88 149L89 150L88 149ZM162.667 149.333L163.333 149.667L162.667 149.333Z" fill="white"/>
<path d="M127.333 150.667L127.667 151.333L127.333 150.667Z" fill="#DFB40A"/>
<path d="M159.667 150.333L160.333 150.667L159.667 150.333Z" fill="white"/>
<path d="M170 150L171 151L170 150Z" fill="#DFB40A"/>
<path d="M156.667 151.333L157.333 151.667L156.667 151.333ZM127 152V155H128L127 152ZM153.667 152.333L154.333 152.667L153.667 152.333ZM151 153L152 154L151 153ZM147.667 154.333L148.333 154.667L147.667 154.333Z" fill="white"/>
<path d="M152 154L153 155L152 154Z" fill="#F6F7F7"/>
<path d="M144 155L145 156L144 155Z" fill="white"/>
<path d="M149 155L150 156L149 155Z" fill="#F6F7F7"/>
<path d="M127 156L128 157L127 156ZM138 156V157H141L138 156Z" fill="white"/>
<path d="M137 157V158H140L137 157Z" fill="#DFB40A"/>
</g>
<defs>
<clipPath id="clip0_910_2">
<rect width="233" height="158" fill="white"/>
</clipPath>
</defs>
</svg>
